<?xml version="1.0" encoding="UTF-8" standalone="no"?>
<!-- Uploaded to: SVG Repo, www.svgrepo.com, Generator: SVG Repo Mixer Tools -->

<svg
   width="533.34558"
   height="533.38214"
   viewBox="0 0 16.000367 16.001464"
   fill="none"
   version="1.1"
   id="svg58"
   sodipodi:docname="linkedin-svgrepo-com.svg"
   inkscape:version="1.2.2 (b0a8486541, 2022-12-01)"
   xmlns:inkscape="http://www.inkscape.org/namespaces/inkscape"
   xmlns:sodipodi="http://sodipodi.sourceforge.net/DTD/sodipodi-0.dtd"
   xmlns="http://www.w3.org/2000/svg"
   xmlns:svg="http://www.w3.org/2000/svg">
  <defs
     id="defs62" />
  <sodipodi:namedview
     id="namedview60"
     pagecolor="#ffffff"
     bordercolor="#000000"
     borderopacity="0.25"
     inkscape:showpageshadow="2"
     inkscape:pageopacity="0.0"
     inkscape:pagecheckerboard="0"
     inkscape:deskcolor="#d1d1d1"
     showgrid="false"
     inkscape:zoom="1.08875"
     inkscape:cx="261.76808"
     inkscape:cy="275.54535"
     inkscape:window-width="1918"
     inkscape:window-height="1061"
     inkscape:window-x="0"
     inkscape:window-y="17"
     inkscape:window-maximized="1"
     inkscape:current-layer="svg58" />
  <path
     d="M 14.72,0.00143505 H 1.37 c -0.17207,-0.00806 -0.34405,0.01789 -0.50608,0.07638 -0.16203,0.05849 -0.31093,0.14836 -0.43819,0.26446 -0.12725,0.11611 -0.23036,0.25618 -0.30341,0.41218 C 0.04927,0.91046505 0.0077,1.0793451 0,1.2514351 V 14.631465 c 0.01008,0.3601 0.15766,0.7028 0.41243,0.9575 0.25477,0.2548 0.59741,0.4024 0.95757,0.4125 h 13.35 c 0.3501,-0.0156 0.6802,-0.1678 0.9195,-0.4239 0.2393,-0.2561 0.3687,-0.5957 0.3605,-0.9461 V 1.2514351 c 0.0029,-0.1675 -0.0285,-0.33381005 -0.0922,-0.48875005 -0.0637,-0.15493 -0.1584,-0.29522 -0.2783,-0.41227 -0.1198,-0.11704 -0.2623,-0.20836 -0.4187,-0.26837 -0.1564,-0.06001 -0.3234,-0.08744 -0.4908,-0.08061 z M 5,13.341465 H 2.67 V 6.2114651 H 5 Z M 3.89,5.1314351 c -0.16259,0.00567 -0.3246,-0.02235 -0.47584,-0.08229 -0.15125,-0.05994 -0.28847,-0.15051 -0.40303,-0.26602 -0.11457,-0.11551 -0.20402,-0.25346 -0.26272,-0.40519 -0.05871,-0.15173 -0.0854,-0.31396 -0.07841,-0.4765 -0.00719,-0.1643 0.02004,-0.32828 0.07995,-0.48143 0.05991,-0.15316 0.15117,-0.2921 0.26792,-0.40791 0.11676,-0.11582 0.25643,-0.20595 0.41006,-0.26461 0.15364,-0.05867 0.31784,-0.08457 0.48207,-0.07605 0.16259,-0.00566 0.3246,0.02235 0.47584,0.08229 0.15125,0.05994 0.28847,0.15051 0.40303,0.26602 0.11457,0.11551 0.20402,0.25346 0.26272,0.40519 0.05871,0.15173 0.0854,0.31396 0.07841,0.4765 0.00719,0.1643 -0.02004,0.32828 -0.07995,0.48143 -0.05991,0.15316 -0.15117,0.2921 -0.26792,0.40791 -0.11676,0.11582 -0.25643,0.20595 -0.41006,0.26461 -0.15364,0.05867 -0.31784,0.08457 -0.48207,0.07605 z m 9.45,8.2100299 H 11 V 9.4414651 c 0,-0.93 -0.33,-1.57 -1.16,-1.57 -0.2578,0.0022 -0.5087,0.0841 -0.7181,0.2345 -0.2095,0.1504 -0.3673,0.3619 -0.4519,0.6055 -0.065,0.1826 -0.0922,0.3765 -0.08,0.57 V 13.341465 H 6.29 V 6.2114651 h 2.3 v 1 c 0.2045,-0.3757 0.5088,-0.6875 0.8794,-0.9011 0.3706,-0.2135 0.793,-0.32042 1.2206,-0.30893 1.51,0 2.65,1.00003 2.65,3.13003 z"
     fill="#ffffff"
     id="path56" />
</svg>
